/* XPM */
static char * RedoImage_xpm[] = {
"24 24 4 1",
" 	c None",
".	c #000000",
"+	c #242424",
"@	c #252525",
"                        ",
"                        ",
"                        ",
"                        ",
"                        ",
"                        ",
"                        ",
"               .........",
"                  .+@@@.",
" .                 .@@@.",
".@..              .@@@@.",
".@@@..          ..@@..+.",
" ..@@@...    ...@@@.  ..",
"   ..@@@@....@@@@..    .",
"     ....@@@@....      .",
"         ....          .",
"                        ",
"                        ",
"                        ",
"                        ",
"                        ",
"                        ",
"                        ",
"                        "};
