/* XPM */
static char * UndoImage_xpm[] = {
"24 24 3 1",
" 	c None",
".	c #222222",
"+	c #3A3A3A",
"                        ",
"                        ",
"                        ",
"                        ",
"                        ",
"                        ",
"                        ",
".        ........       ",
".     ...++++++++...    ",
".   ..+++.......++++.   ",
".  .+++..       ...++.. ",
"...++..            .+++.",
".+++.               ..+.",
".++.                  . ",
".+++...                 ",
".........               ",
"                        ",
"                        ",
"                        ",
"                        ",
"                        ",
"                        ",
"                        ",
"                        "};
